<svg id="Layer_1" version="1.1" viewBox="-91 49.217 56.693 56.693" xml:space="preserve" xmlns="http://www.w3.org/2000/svg"><path d="M-38.329 79.824a4.272 4.272 0 0 0-5.412-2.686l-4.535 1.527-3.073-9.132 4.416-1.487a4.272 4.272 0 1 0-2.725-8.098l-4.417 1.487-1.488-4.42a4.272 4.272 0 1 0-8.098 2.726l1.488 4.42-9.324 3.138-1.47-4.367a4.272 4.272 0 1 0-8.098 2.726l1.47 4.366-4.445 1.497a4.272 4.272 0 1 0 2.726 8.098l4.444-1.497 3.074 9.132-4.327 1.457a4.272 4.272 0 1 0 2.726 8.097l4.327-1.456 1.578 4.688a4.272 4.272 0 1 0 8.097-2.726l-1.577-4.687 9.324-3.139 1.56 4.634a4.272 4.272 0 1 0 8.098-2.725l-1.56-4.635 4.535-1.526a4.272 4.272 0 0 0 2.686-5.412zm-27.37 4.705-3.073-9.132 9.325-3.139 3.073 9.132-9.324 3.139z"/></svg>