<svg width="454" height="454" fill="none" xmlns="http://www.w3.org/2000/svg"><path d="M25.51 151.65c-13.934 8.045-18.725 25.926-10.68 39.86l49.332 85.446c5.522 9.566 17.754 12.843 27.32 7.32l93.396-53.922c9.565-5.523 12.843-17.754 7.32-27.32l-53.922-93.396c-5.523-9.565-17.754-12.843-27.32-7.32L25.51 151.65zm100.227 38.723c-6.203 3.581-8.328 11.513-4.747 17.715 2.686 4.652 1.092 10.601-3.56 13.287s-10.601 1.092-13.287-3.56c-3.581-6.203-11.513-8.328-17.716-4.747-4.652 2.686-10.6 1.092-13.286-3.56s-1.092-10.601 3.56-13.287c6.203-3.581 8.328-11.513 4.747-17.715-2.686-4.652-1.092-10.601 3.56-13.287s10.6-1.092 13.287 3.56c3.581 6.203 11.512 8.328 17.715 4.747 4.652-2.686 10.601-1.092 13.287 3.56s1.092 10.601-3.56 13.287z" fill="#F8FDFF"/><path d="M341.109 139.124a3.955 3.955 0 002.604-.474 3.889 3.889 0 001.424-5.312L287.749 33.94c-8.045-13.934-25.926-18.726-39.86-10.68L162.444 72.59c-9.566 5.523-12.844 17.755-7.321 27.32l42.13 72.972c8.247 14.285 30.503 13.327 41.759 1.269a114.738 114.738 0 0126.546-21.078c23.74-13.706 50.383-17.962 75.551-13.95zM218.024 125.86c-2.686-4.652-1.092-10.601 3.56-13.287l39.31-22.695c4.652-2.686 10.601-1.092 13.286 3.56 2.686 4.652 1.092 10.601-3.56 13.286l-39.309 22.696c-4.652 2.686-10.601 1.092-13.287-3.56z" fill="#EFFAFF"/><path d="M210.979 278.773c-3.719-16.07-22.514-28.027-36.799-19.78l-72.971 42.13c-9.566 5.523-12.844 17.755-7.32 27.321l49.331 85.445c8.045 13.934 25.926 18.726 39.86 10.681l99.398-57.388a3.888 3.888 0 001.424-5.312 3.963 3.963 0 00-2.019-1.713c-23.802-9.109-44.747-26.117-58.453-49.856a114.729 114.729 0 01-12.451-31.528zm-1.45 55.946c5.189 1.391 8.268 6.724 6.878 11.913a9.692 9.692 0 01-4.532 5.905 9.69 9.69 0 01-7.38.972c-7.042-1.887-14.28 2.292-16.166 9.334a9.692 9.692 0 01-4.532 5.905 9.691 9.691 0 01-7.381.972c-5.188-1.391-8.268-6.724-6.877-11.913 1.886-7.041-2.293-14.279-9.334-16.165-5.189-1.391-8.268-6.724-6.878-11.913 1.39-5.188 6.724-8.268 11.913-6.877 7.041 1.886 14.279-2.292 16.166-9.334 1.39-5.189 6.724-8.268 11.912-6.878 5.189 1.391 8.268 6.724 6.878 11.913-1.887 7.041 2.292 14.279 9.333 16.166z" fill="#F4F5FF"/><path d="M275.285 169.921c-45.673 26.37-61.378 84.98-35.008 130.653 26.369 45.673 84.98 61.378 130.653 35.008 45.673-26.369 61.377-84.979 35.008-130.652-26.369-45.673-84.98-61.378-130.653-35.009zm80.446 93.946l-39.31 22.695c-4.652 2.686-10.6 1.092-13.286-3.56s-1.092-10.601 3.56-13.287l39.309-22.695c4.652-2.686 10.601-1.092 13.287 3.56s1.092 10.601-3.56 13.287zm-16.211-28.078l-39.309 22.695c-4.652 2.686-10.601 1.092-13.287-3.56s-1.092-10.601 3.56-13.287l39.309-22.695c4.652-2.686 10.601-1.092 13.287 3.56s1.092 10.601-3.56 13.287z" fill="#FFF7F9"/></svg>